<?xml version="1.0" standalone="no"?>
<!DOCTYPE svg PUBLIC "-//W3C//DTD SVG 20010904//EN"
 "http://www.w3.org/TR/2001/REC-SVG-20010904/DTD/svg10.dtd">
<svg version="1.0" xmlns="http://www.w3.org/2000/svg"
 width="3000.000000pt" height="3000.000000pt" viewBox="0 0 3000.000000 3000.000000"
 preserveAspectRatio="xMidYMid meet">

<g transform="translate(0.000000,3000.000000) scale(0.100000,-0.100000)"
fill="#000000" stroke="none">
<path d="M24527 22463 c-3 -5 5 -8 18 -8 13 0 21 3 18 8 -2 4 -10 7 -18 7 -8
0 -16 -3 -18 -7z"/>
<path d="M24500 22406 c0 -8 -7 -16 -15 -20 -8 -3 -15 -14 -15 -25 0 -11 -5
-23 -10 -26 -6 -4 -31 -50 -57 -103 -25 -53 -50 -98 -54 -100 -5 -2 -9 -10 -9
-19 0 -8 -6 -27 -14 -41 -8 -15 -20 -46 -27 -70 -7 -24 -22 -51 -34 -60 -14
-11 -24 -34 -29 -62 -11 -72 -45 -173 -65 -195 -11 -11 -22 -40 -26 -65 -4
-25 -13 -52 -20 -60 -7 -8 -18 -35 -25 -60 -18 -72 -33 -114 -46 -130 -7 -8
-15 -36 -19 -62 -4 -26 -13 -53 -21 -59 -8 -6 -14 -18 -14 -27 0 -9 -9 -35
-20 -59 -11 -24 -29 -62 -40 -86 -33 -72 -23 -250 18 -307 10 -14 24 -45 32
-70 7 -25 21 -54 30 -65 19 -21 29 -55 37 -122 3 -26 14 -50 29 -64 13 -12 24
-30 24 -40 0 -10 7 -24 15 -33 9 -8 19 -36 24 -61 6 -30 22 -62 48 -93 22 -26
42 -55 46 -65 4 -9 18 -22 32 -27 18 -7 25 -17 25 -35 0 -14 16 -45 35 -71 19
-25 35 -52 35 -59 0 -8 8 -20 18 -27 10 -7 26 -38 36 -68 18 -59 66 -129 66
-97 0 25 36 22 43 -5 5 -19 13 -14 77 50 38 39 70 80 70 91 0 10 6 23 13 29 7
6 19 34 27 62 10 38 21 55 41 65 15 8 30 26 33 40 4 14 11 25 16 25 6 0 10 7
10 15 0 12 21 61 51 117 5 10 9 24 9 32 0 7 7 19 14 26 8 6 16 32 18 58 3 39
7 48 33 62 25 14 32 26 39 67 6 37 14 53 27 56 11 3 19 14 19 25 0 10 9 29 20
42 11 13 20 29 20 35 0 7 7 18 15 25 8 7 15 23 15 36 0 12 5 26 10 29 6 3 10
16 10 27 0 12 6 29 13 37 14 17 32 74 41 129 4 24 -1 43 -19 72 -33 52 -50 60
-29 13 25 -55 28 -106 11 -139 -24 -45 -76 -97 -92 -91 -9 4 -16 -3 -20 -21
-3 -17 -26 -44 -58 -70 -29 -23 -68 -57 -87 -77 -26 -27 -42 -35 -69 -35 -25
0 -44 -8 -66 -29 -42 -40 -95 -42 -118 -4 -5 7 -12 11 -18 8 -12 -8 -12 -555
0 -555 12 0 51 49 51 64 1 16 88 111 96 103 9 -9 -21 -81 -62 -148 -19 -31
-34 -62 -34 -68 0 -6 -16 -28 -35 -50 -19 -21 -35 -46 -35 -54 0 -26 -22 -67
-37 -67 -9 0 -13 14 -13 43 -1 23 -7 67 -14 97 -10 44 -11 108 -5 295 11 341
11 1301 -1 1618 -6 147 -11 335 -13 417 -1 83 -3 150 -4 150 -2 0 -3 -6 -3
-14z m-26 -201 c-4 -8 -8 -15 -10 -15 -2 0 -4 7 -4 15 0 8 4 15 10 15 5 0 7
-7 4 -15z m-339 -1402 c8 -18 22 -36 31 -41 9 -5 17 -20 18 -33 1 -16 9 -25
26 -29 18 -4 27 -15 33 -42 5 -23 17 -39 33 -46 20 -10 24 -19 25 -59 0 -47
17 -109 18 -71 1 16 45 58 63 58 4 0 13 -12 18 -26 8 -20 15 -25 31 -21 30 8
36 -18 44 -213 7 -174 0 -236 -22 -208 -20 26 -83 148 -83 161 0 8 -7 20 -15
27 -9 7 -39 61 -66 119 -55 114 -99 202 -136 266 -54 96 -103 210 -103 239 l0
31 36 -40 c19 -22 41 -54 49 -72z"/>
<path d="M24635 22270 c13 -42 44 -116 44 -105 1 13 -36 116 -45 124 -3 3 -3
-5 1 -19z"/>
<path d="M24680 22145 c0 -5 5 -17 10 -25 5 -8 10 -10 10 -5 0 6 -5 17 -10 25
-5 8 -10 11 -10 5z"/>
<path d="M24785 21876 c74 -186 129 -316 132 -312 2 2 -4 25 -12 51 -9 26 -14
54 -11 62 4 9 -1 17 -14 20 -11 3 -20 14 -20 24 0 10 -4 20 -9 23 -5 4 -12 44
-16 91 -8 87 -18 107 -61 117 -20 5 -20 2 11 -76z"/>
<path d="M16930 21649 c-127 -11 -242 -27 -280 -38 -36 -10 -90 -24 -120 -31
-125 -28 -314 -82 -402 -116 -165 -63 -497 -237 -624 -326 -184 -130 -233
-170 -359 -295 -233 -229 -347 -390 -486 -683 -139 -292 -153 -328 -200 -515
-42 -163 -49 -196 -71 -326 -32 -192 -32 -540 1 -744 22 -133 77 -371 99 -425
6 -14 27 -69 46 -123 20 -53 46 -114 59 -135 12 -20 31 -63 41 -94 11 -32 23
-58 28 -58 4 0 32 -49 62 -109 31 -60 78 -139 106 -176 27 -37 50 -72 50 -76
0 -15 170 -201 279 -305 198 -189 318 -289 389 -325 26 -12 67 -37 92 -55 87
-62 415 -219 475 -228 22 -3 58 -14 80 -25 92 -44 207 -75 505 -136 297 -62
728 -71 1045 -24 256 38 611 127 715 180 19 9 78 35 130 57 52 22 132 61 178
86 45 25 84 46 86 46 11 0 270 180 336 234 82 66 322 304 411 406 87 100 206
289 292 461 125 252 233 605 273 889 22 167 23 572 1 675 -9 39 -23 113 -32
165 -9 52 -23 113 -30 135 -7 22 -21 69 -31 105 -15 58 -56 170 -103 285 -71
176 -291 559 -346 605 -10 8 -35 37 -55 65 -85 114 -358 377 -447 430 -18 11
-57 36 -86 56 -100 69 -163 107 -252 153 -49 26 -101 53 -115 61 -39 23 -224
94 -350 135 -292 95 -463 128 -772 150 -201 14 -365 11 -618 -11z m645 -1064
c61 -8 135 -22 165 -31 30 -9 78 -22 106 -29 88 -22 306 -139 424 -227 100
-75 319 -292 336 -335 8 -18 30 -50 48 -71 67 -75 132 -230 186 -450 34 -137
40 -182 51 -356 9 -151 9 -223 0 -302 -12 -104 -43 -262 -60 -306 -5 -13 -17
-52 -26 -88 -16 -59 -87 -214 -145 -315 -79 -140 -262 -331 -430 -449 -94 -66
-329 -177 -435 -205 -44 -11 -105 -27 -135 -35 -132 -36 -434 -55 -544 -36
-245 43 -333 62 -388 86 -35 14 -82 29 -105 33 -37 7 -173 77 -280 144 -125
79 -294 243 -407 397 -168 228 -233 401 -282 755 -28 200 -6 471 57 708 21 75
38 99 40 55 1 -17 3 -14 9 9 4 18 12 39 17 45 6 7 13 26 17 41 4 16 17 45 30
65 13 20 32 58 44 85 17 38 18 47 6 47 -21 0 -19 5 34 80 48 70 62 83 62 55 0
-17 108 91 150 150 14 19 31 35 37 35 7 0 43 28 80 61 38 34 79 67 93 72 14 6
40 24 58 39 18 15 41 28 52 28 10 0 32 11 48 25 17 14 33 25 38 25 18 0 74 46
74 61 0 19 16 26 146 68 95 31 238 62 359 79 87 13 324 6 470 -13z"/>
<path d="M16735 20480 c-3 -6 1 -7 9 -4 18 7 21 14 7 14 -6 0 -13 -4 -16 -10z"/>
<path d="M18807 18561 c-10 -35 -16 -65 -14 -67 7 -7 39 95 35 113 -2 10 -11
-11 -21 -46z"/>
<path d="M18751 18364 c0 -11 -8 -35 -17 -53 -9 -18 -14 -35 -11 -38 9 -9 38
70 34 92 -4 19 -4 19 -6 -1z"/>
<path d="M15782 18330 c0 -14 2 -19 5 -12 2 6 2 18 0 25 -3 6 -5 1 -5 -13z"/>
<path d="M18430 17845 c-11 -13 -10 -14 4 -9 9 3 16 10 16 15 0 13 -6 11 -20
-6z"/>
<path d="M18289 17723 c-13 -16 -12 -17 4 -4 9 7 17 15 17 17 0 8 -8 3 -21
-13z"/>
<path d="M2858 21548 c-22 -22 -20 195 -18 -2878 1 -1985 3 -2297 15 -2310 13
-12 216 -14 1537 -12 1496 3 1712 7 1988 37 188 22 234 31 374 76 333 106 566
244 761 451 69 73 87 101 146 223 84 173 113 261 139 421 34 210 22 447 -32
614 -98 306 -192 450 -418 642 -92 78 -307 213 -366 229 -27 8 -34 15 -34 34
0 14 4 25 9 25 4 0 29 16 54 35 50 38 67 43 67 20 0 -22 16 -18 48 13 15 15
23 24 18 20 -17 -13 -46 -9 -46 6 0 8 28 37 63 64 83 67 143 132 199 217 148
227 208 431 208 707 0 205 -18 319 -72 458 -67 175 -153 309 -276 435 -199
204 -623 391 -1047 461 -123 21 -419 25 -1980 27 -1245 2 -1321 1 -1337 -15z
m2842 -943 c112 -8 360 -82 360 -108 0 -5 -16 -7 -37 -3 -21 3 -32 3 -25 0 6
-3 12 -12 12 -20 0 -8 8 -14 18 -14 10 0 27 -7 38 -15 25 -19 44 -19 44 0 0
24 17 18 54 -20 169 -169 192 -517 47 -703 -43 -55 -173 -147 -247 -175 -162
-61 -146 -60 -1016 -64 -567 -3 -803 -1 -817 7 -21 11 -21 16 -21 565 0 359 3
555 10 557 18 6 1492 -1 1580 -7z m-385 -2068 c512 -2 661 -6 703 -17 53 -14
75 -37 25 -26 -16 3 -136 7 -268 10 -195 3 -211 2 -85 -4 215 -10 286 -25 326
-67 31 -33 33 -34 96 -28 52 5 70 3 102 -14 40 -21 42 -19 21 32 -9 22 3 22
36 -1 14 -9 48 -31 75 -49 55 -36 121 -116 153 -183 31 -69 54 -212 49 -310
-17 -311 -268 -514 -673 -545 -145 -11 -1746 -11 -1754 0 -4 5 -9 276 -10 602
-2 518 -1 592 12 600 9 4 134 7 279 6 145 -2 556 -4 913 -6z"/>
<path d="M4140 20572 c0 -9 120 -5 129 3 2 3 -26 5 -62 5 -37 0 -67 -4 -67 -8z"/>
<path d="M5693 20563 c9 -2 23 -2 30 0 6 3 -1 5 -18 5 -16 0 -22 -2 -12 -5z"/>
<path d="M6170 20352 c6 -13 14 -21 18 -18 3 4 -2 14 -12 24 -18 16 -18 16 -6
-6z"/>
<path d="M4140 19536 c0 -9 5 -16 10 -16 6 0 10 4 10 9 0 6 -4 13 -10 16 -5 3
-10 -1 -10 -9z"/>
<path d="M5713 19533 c9 -2 25 -2 35 0 9 3 1 5 -18 5 -19 0 -27 -2 -17 -5z"/>
<path d="M4136 18513 c-11 -11 6 -23 33 -23 16 0 34 -6 40 -13 9 -12 22 -12
78 -1 38 7 127 13 199 14 215 0 444 13 404 21 -40 9 -745 11 -754 2z"/>
<path d="M5113 18503 c71 -2 183 -2 250 0 67 1 10 3 -128 3 -137 0 -192 -2
-122 -3z"/>
<path d="M6320 18330 c0 -5 8 -10 17 -10 9 0 25 -7 35 -17 10 -9 18 -11 18 -5
0 6 -13 18 -30 27 -34 18 -40 18 -40 5z"/>
<path d="M6460 18178 c0 -3 6 -18 14 -34 8 -16 17 -72 20 -124 10 -149 17
-195 27 -179 11 17 2 174 -13 244 -6 28 -19 61 -29 74 -11 13 -19 22 -19 19z"/>
<path d="M4140 17366 c0 -12 7 -14 33 -9 39 7 48 13 19 13 -11 0 -27 3 -36 6
-10 4 -16 1 -16 -10z"/>
<path d="M10516 21559 c-20 -3 -41 -10 -46 -15 -5 -5 -34 -65 -65 -134 -70
-154 -81 -178 -144 -312 -27 -59 -69 -154 -92 -212 -24 -62 -47 -106 -55 -106
-20 0 -17 31 6 90 11 28 20 53 20 56 0 11 -40 -18 -40 -29 0 -7 -12 -34 -26
-62 -30 -62 -77 -195 -71 -201 3 -3 13 8 23 25 10 17 24 31 31 31 21 0 15 -36
-15 -87 -26 -44 -102 -199 -102 -207 0 -7 -129 -276 -165 -346 -19 -36 -49
-108 -68 -160 -36 -97 -126 -299 -223 -496 -29 -62 -54 -115 -54 -118 0 -3
-41 -92 -91 -197 -50 -106 -97 -214 -105 -241 -9 -27 -40 -99 -71 -160 -30
-62 -62 -130 -70 -152 -7 -23 -30 -70 -50 -106 -50 -91 -263 -554 -263 -572 0
-8 -99 -211 -128 -263 -6 -11 -30 -67 -54 -125 -23 -58 -46 -106 -50 -108 -4
-2 -8 -10 -8 -18 0 -8 -6 -25 -14 -37 -8 -12 -28 -56 -45 -97 -16 -41 -49
-113 -72 -160 -22 -47 -61 -130 -86 -185 -25 -55 -51 -113 -60 -130 -8 -16
-36 -79 -63 -140 -26 -60 -57 -128 -69 -150 -23 -43 -27 -70 -11 -80 11 -7
1257 -8 1269 -1 4 3 22 43 41 90 34 83 59 110 61 64 1 -19 2 -18 10 7 5 19 5
31 -3 36 -14 9 -5 53 26 120 13 30 47 106 74 169 27 63 66 151 85 195 20 44
66 152 103 240 36 88 74 166 82 172 12 10 284 12 1264 9 1058 -4 1250 -7 1262
-19 18 -18 89 -159 155 -312 29 -66 70 -156 91 -200 21 -44 49 -107 63 -140
14 -33 60 -142 103 -243 42 -100 82 -185 87 -189 13 -8 1313 -7 1327 2 15 9 3
46 -62 185 -104 219 -115 244 -129 280 -7 19 -31 67 -53 105 -56 100 -246 500
-246 519 0 3 -20 46 -44 95 -24 49 -47 100 -51 113 -4 13 -81 172 -171 354
-90 182 -164 334 -164 338 0 13 -64 150 -127 271 -56 108 -113 236 -113 255 0
10 -3 20 -7 22 -9 3 -36 59 -173 349 -54 113 -125 262 -158 330 -34 68 -72
149 -85 179 -14 30 -44 98 -68 150 -23 52 -71 156 -106 230 -35 74 -74 157
-86 185 -12 27 -61 128 -108 225 -90 184 -156 321 -169 355 -5 11 -40 85 -78
165 -39 80 -91 195 -117 255 -53 126 -111 234 -129 241 -18 7 -1218 10 -1260
3z m658 -1420 c15 -28 26 -59 26 -70 0 -11 7 -22 15 -25 8 -4 18 -24 21 -45 4
-22 11 -42 15 -45 5 -3 9 -14 9 -25 0 -11 13 -43 28 -73 16 -29 32 -67 35 -83
3 -17 20 -46 37 -64 18 -21 30 -44 30 -61 0 -16 5 -28 10 -28 6 0 10 11 10 25
0 60 30 8 91 -157 15 -43 37 -95 49 -117 11 -22 61 -136 111 -253 86 -202 117
-274 238 -549 28 -65 51 -122 51 -128 0 -8 -228 -11 -815 -11 -687 0 -816 2
-821 14 -3 8 18 64 45 125 28 61 58 132 67 158 9 27 32 85 52 131 33 78 52
101 52 66 0 -8 5 -12 10 -9 15 10 12 35 -5 35 -19 0 -19 2 4 42 11 18 35 74
54 123 20 50 50 122 68 160 37 81 127 295 171 408 28 73 48 97 48 60 0 -10 12
2 27 27 14 25 37 58 50 73 13 16 23 41 23 55 0 15 9 41 20 57 11 17 20 40 20
52 0 12 18 43 40 68 26 30 40 56 40 74 0 32 7 41 31 41 12 0 27 -18 43 -51z"/>
<path d="M10720 19340 c-6 -11 -8 -20 -6 -20 3 0 10 9 16 20 6 11 8 20 6 20
-3 0 -10 -9 -16 -20z"/>
<path d="M10662 19208 c-10 -30 -10 -31 3 -14 13 17 21 46 12 46 -1 0 -8 -15
-15 -32z"/>
<path d="M11581 19204 c-1 -12 6 -27 14 -34 8 -7 15 -23 15 -36 0 -12 5 -26
10 -29 6 -4 10 7 10 24 0 17 -4 31 -10 31 -5 0 -16 15 -24 33 -12 26 -15 28
-15 11z"/>
<path d="M11640 19068 c0 -8 6 -23 14 -33 13 -18 14 -18 9 8 -6 29 -23 48 -23
25z"/>
<path d="M11681 18984 c0 -11 3 -14 6 -6 3 7 2 16 -1 19 -3 4 -6 -2 -5 -13z"/>
<path d="M10496 18823 c-6 -14 -5 -15 5 -6 7 7 10 15 7 18 -3 3 -9 -2 -12 -12z"/>
<path d="M11860 18561 c0 -6 4 -13 10 -16 6 -3 7 1 4 9 -7 18 -14 21 -14 7z"/>
<path d="M10356 18494 c-4 -9 -4 -19 -1 -22 2 -3 7 3 11 12 4 9 4 19 1 22 -2
3 -7 -3 -11 -12z"/>
<path d="M11900 18484 c0 -14 4 -23 9 -20 5 3 7 15 4 26 -7 28 -13 25 -13 -6z"/>
<path d="M22233 21479 c-7 -7 -10 -30 -6 -60 5 -38 3 -49 -8 -49 -22 0 -12
-81 12 -98 11 -7 19 -19 19 -26 0 -8 6 -19 14 -25 8 -7 17 -27 20 -45 5 -26
14 -37 36 -44 23 -9 29 -16 29 -39 -1 -36 22 -111 43 -143 9 -14 20 -42 23
-63 4 -21 20 -62 35 -92 15 -30 33 -77 40 -104 6 -28 18 -55 26 -62 8 -6 14
-26 14 -43 1 -49 25 -128 43 -141 10 -7 24 -36 33 -64 8 -28 24 -66 35 -85 11
-18 26 -60 35 -92 8 -32 21 -66 29 -74 8 -9 15 -21 15 -27 0 -6 7 -17 16 -24
9 -7 29 -41 45 -75 28 -59 32 -63 72 -69 102 -16 107 -17 107 -34 0 -10 15
-25 35 -34 19 -9 35 -21 35 -26 0 -14 58 -31 107 -31 24 0 56 -6 71 -14 15 -7
67 -24 115 -36 48 -12 114 -33 145 -47 41 -19 80 -27 140 -31 75 -4 85 -7 94
-28 10 -22 19 -26 100 -40 21 -3 47 -15 59 -25 16 -13 39 -19 78 -20 76 -2 84
0 98 18 11 14 16 15 38 3 36 -19 58 3 46 45 l-9 30 -1 -32 c-1 -38 -13 -41
-48 -14 -37 30 -806 786 -977 961 -83 85 -309 315 -503 510 -194 196 -353 361
-353 367 0 7 8 17 18 22 9 6 12 11 7 11 -6 0 -16 -5 -22 -11z m662 -1331 c10
-32 55 -78 77 -78 22 0 93 -36 110 -57 12 -15 6 -16 -66 -9 -104 9 -130 23
-150 83 -9 25 -16 55 -16 65 0 27 37 23 45 -4z"/>
<path d="M26765 21450 c-27 -10 -69 -19 -93 -19 -48 -1 -82 -15 -82 -35 0 -12
-79 -36 -120 -36 -10 0 -20 -9 -23 -20 -3 -11 -14 -20 -25 -20 -31 0 -106 -29
-115 -45 -4 -8 -16 -15 -25 -15 -9 0 -42 -12 -72 -26 -77 -37 -90 -42 -133
-49 -51 -8 -87 -25 -87 -41 0 -6 -24 -17 -52 -24 -29 -7 -58 -18 -64 -26 -6
-8 -44 -20 -85 -28 -51 -9 -78 -20 -90 -35 -9 -11 -26 -21 -37 -21 -33 0 -76
-19 -93 -42 -11 -15 -38 -24 -95 -34 -53 -9 -82 -19 -89 -30 -5 -10 -18 -26
-27 -36 -10 -10 -18 -24 -18 -31 0 -8 -9 -22 -20 -32 -11 -10 -20 -24 -20 -32
0 -8 -9 -26 -19 -41 -10 -15 -27 -61 -37 -102 -10 -41 -21 -77 -24 -80 -3 -3
-16 -24 -28 -47 -15 -30 -19 -52 -15 -78 5 -31 3 -37 -15 -42 -11 -3 -23 -16
-27 -31 -6 -26 -47 -134 -67 -178 -6 -12 -7 -40 -3 -62 4 -24 2 -49 -5 -61 -6
-12 -11 -38 -11 -58 0 -21 -4 -49 -9 -63 -4 -14 -14 -45 -21 -70 -7 -25 -18
-53 -24 -62 -14 -22 -9 -176 6 -194 6 -8 17 -14 24 -14 7 0 15 -7 18 -15 5
-11 20 -13 74 -8 37 3 70 10 71 15 10 25 37 36 103 42 52 5 79 12 94 26 14 13
61 28 135 44 131 27 274 67 340 95 25 10 61 21 81 25 21 4 48 15 60 25 13 10
42 21 64 23 53 7 107 29 123 50 7 10 28 20 47 24 41 7 50 18 60 64 4 19 15 51
25 70 10 19 24 51 31 70 7 19 21 44 31 54 10 11 18 26 18 33 0 13 4 22 34 80
9 17 16 39 16 49 0 10 11 41 24 69 32 67 66 155 66 170 0 7 16 37 35 66 19 30
35 60 35 67 0 7 11 37 24 65 13 29 27 68 31 87 4 19 17 46 30 60 15 17 25 42
28 75 11 109 33 165 71 183 13 6 26 27 34 58 8 27 18 60 23 74 5 14 10 50 11
80 3 52 2 55 -22 56 -14 1 -47 -6 -75 -16z m82 -6 c3 -8 -3 -25 -14 -37 -11
-12 -30 -40 -43 -62 -13 -22 -34 -53 -46 -68 -13 -15 -26 -44 -29 -65 -4 -20
-22 -69 -40 -107 -19 -39 -37 -84 -40 -100 -7 -29 -53 -149 -81 -210 -7 -16
-25 -61 -38 -100 -14 -38 -43 -117 -65 -175 -23 -58 -41 -108 -41 -113 0 -9
-66 -181 -85 -222 -8 -16 -28 -65 -46 -108 -17 -43 -37 -80 -43 -82 -143 -37
-298 -58 -396 -53 -70 3 -76 5 -88 31 -7 15 -17 28 -23 28 -5 1 -15 2 -21 3
-7 0 -14 11 -16 23 -2 13 -12 29 -22 36 -11 7 -24 25 -29 40 -13 33 -42 35
-78 7 -14 -11 -39 -20 -55 -20 -39 0 -79 -29 -158 -114 -103 -112 -213 -217
-224 -213 -25 8 -12 64 65 287 79 231 126 387 154 505 7 33 23 97 34 143 12
46 21 100 21 121 0 21 6 43 13 48 20 16 175 78 267 108 47 15 101 36 120 45
19 10 51 21 70 25 54 11 26 -11 -65 -50 -42 -19 -85 -40 -94 -47 -9 -8 -65
-38 -125 -68 -59 -30 -110 -59 -113 -66 -5 -15 41 -62 73 -75 14 -5 27 -17 31
-26 10 -27 23 -33 74 -33 39 0 50 -5 72 -31 14 -18 29 -45 33 -62 3 -17 14
-32 25 -34 14 -4 19 -14 19 -39 0 -24 5 -34 15 -34 9 0 71 51 138 112 164 151
738 733 757 767 16 29 74 84 100 94 25 9 30 8 37 -9z m-241 -109 c-11 -8 -27
-15 -35 -15 -13 1 -12 4 3 15 11 8 27 15 35 15 13 -1 12 -4 -3 -15z m-96 -40
c0 -15 -40 -30 -62 -23 -8 3 -1 11 17 21 38 20 45 21 45 2z m-155 -70 c-54
-26 -80 -31 -70 -15 10 16 66 38 95 38 20 0 14 -5 -25 -23z m-115 -50 c-7 -8
-27 -15 -44 -15 -29 1 -30 1 -12 15 11 8 31 15 44 15 21 0 22 -2 12 -15z m-94
-33 c-3 -5 -22 -15 -43 -24 -21 -8 -63 -25 -93 -38 -30 -12 -64 -24 -75 -28
-37 -11 3 26 43 39 20 7 59 23 87 35 50 24 91 31 81 16z m-516 -382 c0 -5 -2
-10 -4 -10 -3 0 -8 5 -11 10 -3 6 -1 10 4 10 6 0 11 -4 11 -10z"/>
<path d="M22392 21416 c37 -18 75 -36 85 -40 10 -3 25 -9 33 -12 8 -3 -8 10
-36 29 -29 19 -65 37 -80 39 -16 3 -38 8 -49 12 -11 3 10 -9 47 -28z"/>
<path d="M22600 21330 c8 -5 20 -10 25 -10 6 0 3 5 -5 10 -8 5 -19 10 -25 10
-5 0 -3 -5 5 -10z"/>
<path d="M2793 21265 c0 -22 2 -30 4 -17 2 12 2 30 0 40 -3 9 -5 -1 -4 -23z"/>
<path d="M22715 21280 c47 -22 67 -25 40 -6 -11 7 -33 16 -50 19 -26 5 -24 4
10 -13z"/>
<path d="M25020 21298 c1 -16 70 -168 70 -156 0 18 -11 48 -42 116 -16 34 -29
53 -28 40z"/>
<path d="M22839 21230 c35 -17 66 -29 69 -25 10 10 -16 27 -55 35 -21 4 -47
10 -58 14 -11 3 9 -8 44 -24z"/>
<path d="M22999 21160 c24 -11 46 -20 50 -20 12 1 -64 39 -79 39 -8 0 5 -8 29
-19z"/>
<path d="M23062 21134 c2 -1 39 -17 83 -34 44 -17 98 -39 120 -50 22 -10 63
-27 90 -38 28 -11 67 -27 87 -36 31 -13 36 -14 32 -2 -3 8 -19 18 -36 21 -16
4 -39 17 -50 30 -14 16 -36 26 -70 30 -27 4 -62 13 -76 21 -15 8 -33 14 -40
14 -8 0 -21 9 -30 19 -11 12 -35 21 -65 24 -26 2 -47 3 -45 1z"/>
<path d="M25096 21107 c3 -10 9 -15 12 -12 3 3 0 11 -7 18 -10 9 -11 8 -5 -6z"/>
<path d="M23523 20940 c10 -6 50 -22 89 -36 39 -13 78 -29 86 -36 9 -7 5 2 -8
20 -25 33 -32 36 -107 46 -23 3 -50 9 -60 12 -17 5 -17 5 0 -6z"/>
<path d="M15149 20928 c-14 -6 -31 -24 -37 -42 l-12 -31 19 24 c10 13 29 32
42 42 27 21 25 21 -12 7z"/>
<path d="M23723 20830 c8 -14 34 -86 57 -160 23 -74 47 -151 53 -170 l12 -35
3 49 c2 27 -1 52 -6 55 -5 3 -13 26 -17 51 -4 24 -11 51 -15 60 -5 8 -23 44
-40 80 -18 36 -39 72 -47 80 -14 13 -14 12 0 -10z"/>
<path d="M9952 20560 c-18 -29 -15 -48 4 -22 8 12 14 27 12 32 -2 6 -9 1 -16
-10z"/>
<path d="M23850 20448 c0 -6 35 -118 97 -307 45 -137 48 -143 55 -108 6 30 4
41 -12 57 -11 11 -20 33 -20 49 0 16 -6 31 -14 34 -18 7 -31 78 -16 87 18 11
2 50 -21 50 -16 0 -19 7 -19 48 0 39 -5 53 -25 72 -14 13 -25 21 -25 18z"/>
<path d="M14685 20319 c-4 -6 -5 -12 -2 -15 2 -3 7 2 10 11 7 17 1 20 -8 4z"/>
<path d="M2793 20135 c0 -38 2 -53 4 -32 2 20 2 52 0 70 -2 17 -4 1 -4 -38z"/>
<path d="M24583 19940 c-8 -20 -8 -32 -1 -36 13 -8 28 15 28 44 0 31 -14 27
-27 -8z"/>
<path d="M2792 19900 c0 -19 2 -27 5 -17 2 9 2 25 0 35 -3 9 -5 1 -5 -18z"/>
<path d="M14490 19911 c-12 -24 -13 -34 -1 -27 9 6 22 46 15 46 -2 0 -8 -9
-14 -19z"/>
<path d="M9603 19773 c-27 -37 -49 -82 -57 -117 -13 -51 20 -12 34 42 7 26 18
54 25 62 7 8 15 21 19 28 13 22 0 13 -21 -15z"/>
<path d="M26273 19783 c-23 -3 -33 -10 -35 -26 -2 -18 -12 -23 -53 -29 -32 -4
-55 -14 -65 -27 -8 -11 -31 -24 -50 -27 -47 -9 -70 -22 -70 -39 0 -13 -18 -20
-102 -41 -22 -5 -27 -10 -23 -28 5 -18 -4 -25 -67 -53 -40 -18 -97 -35 -127
-39 -31 -4 -62 -15 -72 -25 -10 -10 -40 -24 -66 -30 -61 -15 -83 -26 -83 -43
0 -8 -12 -17 -26 -20 -14 -4 -36 -18 -49 -32 -16 -17 -43 -29 -85 -38 -58 -11
-64 -15 -74 -47 -7 -21 -25 -43 -48 -58 -42 -27 -41 -49 3 -58 25 -5 29 -10
29 -40 0 -20 6 -36 14 -39 8 -3 16 -13 19 -23 3 -12 18 -21 42 -25 20 -4 47
-18 59 -31 12 -12 41 -28 64 -34 45 -13 126 -63 140 -86 4 -8 36 -26 70 -39
34 -14 69 -32 78 -40 8 -9 28 -16 43 -16 45 0 92 -21 101 -45 6 -15 20 -25 43
-29 19 -4 51 -17 70 -30 19 -13 56 -31 83 -40 27 -9 54 -24 61 -35 6 -10 28
-21 49 -24 20 -4 49 -17 63 -30 18 -17 43 -27 81 -31 48 -6 63 -3 116 23 34
16 80 32 104 36 26 4 52 17 66 32 15 16 39 27 73 32 28 4 52 10 54 12 1 2 7
13 13 24 9 16 25 21 90 26 78 6 124 20 124 39 0 5 27 17 60 26 36 10 60 22 60
30 0 8 11 14 28 14 27 1 143 26 145 32 17 35 29 44 69 49 49 8 88 24 88 39 0
4 15 11 33 15 96 18 130 29 146 47 11 11 44 23 82 30 75 14 112 43 113 89 1
28 -1 29 -29 24 -88 -18 -214 -49 -245 -60 -19 -7 -107 -36 -195 -65 -175 -58
-273 -82 -281 -68 -3 5 0 25 6 44 12 34 11 37 -19 65 -57 52 -163 70 -509 88
-100 6 -186 12 -190 15 -7 4 -369 20 -727 31 -99 3 -194 11 -212 17 -26 9 -43
8 -91 -6 -33 -10 -65 -17 -71 -15 -14 5 75 65 159 106 36 18 97 50 135 73 66
37 433 226 645 330 52 26 115 64 139 84 45 38 62 40 106 10 11 -8 24 -14 30
-14 5 0 -8 11 -30 25 -22 13 -47 24 -55 23 -8 -1 -29 -3 -47 -5z m-663 -733
c13 -9 13 -11 0 -20 -21 -13 -80 1 -80 21 0 12 61 11 80 -1z m77 -28 c-5 -24
-1 -31 23 -45 15 -9 37 -17 47 -17 11 0 28 -7 39 -15 10 -8 25 -15 33 -15 8 0
22 -6 30 -14 24 -20 92 -54 122 -60 14 -3 31 -17 37 -31 8 -17 20 -25 37 -25
13 0 39 -9 57 -20 18 -11 41 -20 50 -20 11 0 18 -10 20 -27 2 -22 9 -29 31
-31 15 -2 27 -9 27 -18 0 -19 -30 -18 -59 2 -13 9 -49 30 -80 47 -31 16 -67
38 -80 48 -13 11 -34 19 -46 19 -12 0 -34 9 -48 20 -14 12 -50 32 -79 46 -148
70 -185 95 -201 137 -3 9 -2 17 3 17 6 0 10 7 10 15 0 8 7 15 16 15 13 0 15
-7 11 -28z"/>
<path d="M22697 19757 c-13 -20 -27 -25 -84 -30 -46 -5 -72 -12 -80 -23 -7
-10 -47 -24 -97 -35 -54 -11 -92 -25 -105 -38 -14 -14 -34 -21 -61 -21 -50 0
-90 -18 -90 -41 0 -21 -15 -25 -105 -33 -42 -4 -65 -11 -75 -24 -9 -11 -33
-25 -53 -31 -21 -7 -46 -22 -57 -33 -20 -21 -79 -37 -143 -38 -27 0 -44 -7
-60 -24 -14 -14 -44 -28 -80 -36 -32 -8 -64 -21 -70 -31 -7 -9 -31 -20 -52
-24 -77 -13 -115 -26 -115 -39 0 -7 -27 -30 -60 -52 -33 -21 -60 -42 -60 -46
0 -4 16 -18 35 -30 22 -15 35 -31 35 -45 0 -15 8 -23 29 -28 16 -3 37 -15 46
-25 10 -11 34 -24 54 -31 20 -6 53 -22 73 -36 24 -16 59 -28 99 -32 43 -5 66
-13 75 -26 9 -12 28 -20 53 -21 57 -3 108 -22 114 -43 4 -17 85 -51 121 -51 8
0 20 -9 26 -20 8 -14 21 -20 45 -20 54 0 124 -22 130 -41 7 -22 26 -29 104
-36 51 -5 65 -10 69 -25 2 -10 16 -21 31 -25 34 -8 89 -34 124 -57 18 -12 53
-21 98 -24 61 -4 70 -7 66 -22 -7 -26 31 -44 66 -31 15 6 45 10 65 9 25 -1 54
8 83 25 25 15 55 27 67 27 12 0 36 12 54 28 18 15 50 35 71 45 20 9 37 21 37
26 0 5 16 15 35 21 27 9 35 17 35 35 0 21 5 24 66 30 48 6 72 14 90 30 14 13
48 29 75 35 30 7 55 20 62 32 7 11 27 26 45 33 17 8 32 20 32 28 0 16 20 27
48 27 38 0 91 22 97 39 3 10 19 24 35 31 17 7 30 21 32 33 2 14 11 23 26 25
12 2 30 14 38 28 9 13 25 24 35 24 10 0 20 3 22 8 6 8 -114 7 -248 -3 -114 -8
-124 -11 -99 -30 15 -11 17 -18 9 -31 -13 -21 -203 -138 -350 -215 -60 -32
-146 -78 -190 -103 -44 -24 -99 -55 -123 -67 -23 -12 -52 -34 -63 -50 -26 -37
-53 -37 -80 0 -12 16 -31 32 -43 36 l-21 6 23 16 c12 8 22 24 22 35 0 10 6 31
14 46 16 32 30 105 27 146 -1 15 3 33 8 40 5 6 11 41 13 78 4 66 3 68 -23 77
-36 13 -301 29 -664 41 -275 9 -375 19 -375 38 1 30 31 87 47 88 10 1 23 2 29
3 6 1 11 8 11 16 0 22 -7 21 -152 -17 -22 -6 -92 -28 -155 -49 -64 -22 -133
-39 -155 -39 -52 0 -38 13 56 52 41 17 101 41 134 55 33 14 110 44 170 68 61
24 133 53 160 64 72 29 228 89 315 121 66 24 344 136 440 176 19 9 51 24 71
35 20 10 48 19 61 19 14 0 110 -45 214 -100 104 -55 192 -100 197 -100 13 0 8
28 -9 44 -10 10 -24 14 -39 10 -18 -4 -30 1 -50 24 -18 20 -39 31 -67 35 -22
3 -49 15 -59 26 -10 11 -36 23 -56 27 -21 4 -56 17 -79 30 -53 31 -97 31 -117
1z"/>
<path d="M24091 19714 c0 -11 3 -14 6 -6 3 7 2 16 -1 19 -3 4 -6 -2 -5 -13z"/>
<path d="M26460 19716 c14 -7 36 -16 50 -20 14 -3 7 3 -15 13 -45 22 -73 27
-35 7z"/>
<path d="M26600 19660 c8 -5 20 -10 25 -10 6 0 3 5 -5 10 -8 5 -19 10 -25 10
-5 0 -3 -5 5 -10z"/>
<path d="M26650 19642 c8 -5 26 -13 40 -16 17 -5 20 -4 10 2 -8 5 -26 13 -40
16 -17 5 -20 4 -10 -2z"/>
<path d="M26720 19618 c5 -6 158 -68 167 -68 20 0 -50 38 -87 47 -25 6 -54 15
-65 19 -11 4 -18 5 -15 2z"/>
<path d="M24483 19577 c-4 -7 -39 -20 -78 -30 -40 -10 -77 -26 -87 -38 -9 -11
-30 -24 -47 -30 -17 -6 -31 -17 -31 -25 0 -7 -13 -23 -30 -36 -16 -12 -30 -29
-30 -39 0 -22 -27 -86 -40 -94 -5 -3 -10 -13 -10 -22 0 -9 -6 -24 -14 -32 -8
-9 -19 -55 -25 -104 -10 -75 -10 -91 4 -109 8 -13 15 -35 15 -50 0 -18 8 -33
25 -44 14 -9 25 -24 25 -34 0 -10 7 -23 15 -30 8 -7 15 -18 15 -26 0 -7 14
-22 30 -34 17 -12 30 -27 30 -35 0 -14 22 -25 52 -25 11 0 47 -16 79 -36 l59
-37 113 11 112 10 52 49 c30 29 68 54 93 62 27 8 44 20 50 36 5 12 14 26 20
30 6 4 15 18 20 31 5 13 21 29 35 34 15 6 24 14 21 19 -3 5 -1 31 5 57 23 107
26 137 18 184 -4 27 -14 64 -22 82 -8 18 -20 55 -27 81 -9 32 -22 54 -41 68
-16 11 -29 27 -29 34 0 8 -9 17 -21 20 -11 4 -24 17 -29 29 -7 20 -22 26 -98
40 -49 9 -102 16 -116 16 -16 0 -26 6 -26 15 0 19 -75 21 -87 2z m232 -50 c39
-19 85 -58 85 -72 0 -8 -13 -15 -32 -17 -40 -4 -48 -33 -20 -68 16 -20 22 -22
35 -12 8 7 20 26 27 42 7 17 17 30 22 30 18 0 63 -57 96 -123 41 -82 46 -174
14 -264 -11 -32 -23 -71 -27 -87 -7 -32 -96 -126 -119 -126 -8 0 -24 -13 -36
-29 -14 -21 -37 -34 -73 -45 -77 -22 -93 -15 -93 42 1 47 1 47 -32 47 -27 0
-37 6 -48 28 -9 16 -23 27 -36 27 -15 0 -18 -3 -10 -12 10 -13 12 -118 2 -118
-3 0 -11 9 -18 20 -9 15 -23 20 -56 20 -63 0 -75 19 -48 76 12 24 29 44 37 44
20 0 19 24 0 40 -14 11 -23 6 -63 -33 -51 -50 -74 -57 -104 -30 -25 23 -23 62
8 117 19 34 34 48 55 53 30 6 48 38 31 55 -7 7 -14 3 -22 -12 -15 -28 -35 -11
-27 23 5 19 12 23 34 20 26 -4 31 2 76 87 40 74 55 93 83 105 19 8 34 21 34
29 0 22 -13 20 -35 -4 -11 -12 -31 -20 -50 -20 -27 0 -39 8 -68 46 -45 57 -39
75 36 110 49 23 157 34 157 17 0 -4 -11 -19 -26 -34 -31 -32 -26 -79 10 -79
25 0 41 -10 47 -28 4 -13 119 -65 127 -57 11 11 -10 35 -35 40 -60 13 -78 28
-79 71 -1 22 -4 49 -8 62 -6 17 -2 24 16 32 25 10 102 3 133 -13z m-465 -162
c7 -8 23 -15 37 -15 32 0 83 -27 83 -44 0 -7 -15 -27 -34 -44 -19 -17 -39 -39
-45 -49 -15 -28 -22 -10 -9 24 10 26 9 35 -6 58 -17 26 -18 26 -37 9 -14 -13
-17 -25 -13 -54 5 -31 2 -39 -20 -53 -44 -29 -49 -23 -42 45 9 78 38 137 67
138 4 0 12 -7 19 -15z m-60 -320 c0 -14 -4 -25 -9 -25 -12 0 -23 29 -15 41 10
18 24 9 24 -16z"/>
<path d="M24700 19313 c0 -5 9 -21 19 -37 11 -16 17 -35 14 -43 -3 -8 2 -31
12 -52 16 -36 16 -41 1 -70 -9 -17 -14 -36 -10 -42 3 -6 -4 -41 -16 -78 -19
-57 -21 -72 -11 -107 11 -43 38 -65 47 -40 3 8 -2 31 -11 51 -14 35 -14 40 1
57 23 25 40 23 60 -7 23 -35 48 -34 40 3 -11 42 -19 142 -12 142 3 0 15 -6 26
-12 15 -10 22 -10 31 -1 19 19 -5 63 -34 63 -37 0 -96 81 -111 153 -4 18 -13
27 -26 27 -11 0 -20 -3 -20 -7z"/>
<path d="M24834 19295 c-9 -23 3 -45 26 -45 23 0 27 29 8 48 -16 16 -27 15
-34 -3z"/>
<path d="M23220 19540 c21 -16 190 -101 190 -96 0 2 -16 14 -36 25 -20 12 -38
30 -41 41 -3 13 -17 21 -46 25 -23 4 -51 9 -62 11 -17 4 -17 3 -5 -6z"/>
<path d="M26949 19525 c29 -14 55 -24 58 -22 5 5 -54 33 -87 41 -14 3 -1 -6
29 -19z"/>
<path d="M7430 19510 c-6 -11 -8 -20 -6 -20 3 0 10 9 16 20 6 11 8 20 6 20 -3
0 -10 -9 -16 -20z"/>
<path d="M27030 19490 c8 -5 20 -10 25 -10 6 0 3 5 -5 10 -8 5 -19 10 -25 10
-5 0 -3 -5 5 -10z"/>
<path d="M27149 19445 c18 -8 38 -15 45 -15 6 1 -4 7 -23 15 -18 8 -38 15 -45
15 -6 -1 4 -7 23 -15z"/>
<path d="M23440 19425 c0 -5 80 -45 89 -45 3 0 1 4 -4 9 -12 11 -85 42 -85 36z"/>
<path d="M27289 19389 c24 -11 46 -18 48 -15 4 4 -73 36 -85 35 -4 0 13 -9 37
-20z"/>
<path d="M27370 19356 c14 -7 36 -16 50 -20 14 -3 7 3 -15 13 -45 22 -73 27
-35 7z"/>
<path d="M23580 19354 c0 -5 54 -32 84 -44 19 -7 24 -6 20 3 -4 11 -104 50
-104 41z"/>
<path d="M27450 19326 c0 -2 7 -7 16 -10 8 -3 12 -2 9 4 -6 10 -25 14 -25 6z"/>
<path d="M23700 19296 c0 -8 81 -48 87 -42 3 2 -6 11 -19 19 -27 17 -68 31
-68 23z"/>
<path d="M27549 19285 c18 -8 36 -15 40 -15 13 1 -45 29 -59 29 -8 0 0 -6 19
-14z"/>
<path d="M27659 19244 c35 -14 65 -23 68 -21 4 5 -109 47 -123 46 -5 0 20 -11
55 -25z"/>
<path d="M23821 19237 c20 -16 119 -66 114 -57 -6 10 -98 60 -111 60 -4 0 -5
-1 -3 -3z"/>
<path d="M27741 19216 c8 -8 79 -35 79 -30 0 3 -16 12 -35 20 -33 14 -53 18
-44 10z"/>
<path d="M27841 19164 c11 -14 11 -18 -6 -30 -10 -8 -14 -14 -9 -14 14 0 34
21 34 36 0 6 -7 15 -16 18 -15 6 -15 4 -3 -10z"/>
<path d="M27778 19113 c7 -3 16 -2 19 1 4 3 -2 6 -13 5 -11 0 -14 -3 -6 -6z"/>
<path d="M7021 19090 c-18 -16 -20 -20 -7 -20 10 0 30 -7 46 -15 29 -15 30
-15 30 8 0 24 -17 47 -34 47 -6 -1 -22 -10 -35 -20z"/>
<path d="M14312 18970 c0 -19 2 -27 5 -17 2 9 2 25 0 35 -3 9 -5 1 -5 -18z"/>
<path d="M24982 18713 c-5 -10 -6 -27 -1 -38 4 -11 8 -49 9 -85 1 -85 14 -148
33 -163 10 -8 16 -37 20 -92 5 -87 57 -262 89 -304 10 -13 18 -30 18 -38 0 -8
13 -47 29 -86 16 -40 32 -100 35 -133 7 -82 23 -147 52 -214 13 -30 30 -75 38
-100 12 -39 18 -46 48 -51 42 -6 58 -16 58 -34 0 -8 10 -20 23 -26 12 -7 25
-16 28 -21 13 -20 127 -51 189 -52 56 -1 65 -4 69 -21 5 -27 19 -35 62 -35 22
0 53 -11 83 -30 27 -17 61 -34 77 -37 17 -3 34 -14 39 -23 6 -10 31 -25 58
-34 26 -9 53 -25 59 -35 14 -22 89 -41 160 -41 36 0 51 -5 69 -25 12 -13 35
-27 51 -31 15 -4 35 -15 44 -26 10 -13 41 -25 85 -34 46 -10 73 -21 83 -34 10
-16 25 -20 66 -20 48 0 53 2 48 20 -8 28 32 27 90 -4 42 -23 57 -24 57 -5 0 5
-6 6 -13 3 -14 -5 -148 117 -327 296 -304 306 -903 892 -965 946 -106 91 -165
152 -165 169 0 9 -16 23 -37 32 -21 8 -43 23 -51 34 -7 10 -19 25 -27 33 -8 8
-13 21 -10 29 3 7 -3 25 -15 38 -20 24 -20 24 -35 5 -15 -20 -20 -12 -16 22 1
6 -10 17 -24 22 -14 5 -25 15 -25 23 0 7 -34 46 -75 87 -116 115 -105 126 77
71 73 -22 165 -52 203 -66 100 -36 333 -105 520 -154 39 -10 126 -35 193 -55
68 -20 134 -36 147 -36 13 0 31 -10 39 -22 9 -12 16 -18 16 -12 0 6 -12 22
-27 36 -22 21 -42 28 -93 33 -70 7 -141 26 -205 55 -22 10 -55 21 -72 25 -18
4 -33 12 -33 19 0 12 -89 33 -180 43 -25 3 -54 14 -66 24 -18 17 -56 27 -165
44 -21 3 -42 12 -49 20 -7 8 -22 15 -35 15 -12 0 -47 5 -78 11 -46 10 -58 16
-63 34 -5 21 -13 23 -87 27 -45 3 -90 8 -99 12 -11 5 -20 2 -26 -11z"/>
<path d="M23972 18692 c-10 -10 -53 -24 -104 -34 -56 -11 -94 -24 -107 -37
-19 -19 -38 -23 -163 -36 -31 -4 -62 -13 -68 -21 -14 -16 -62 -30 -142 -39
-40 -4 -64 -13 -83 -31 -14 -13 -38 -24 -52 -24 -34 0 -105 -21 -120 -36 -6
-6 -56 -17 -110 -23 -171 -21 -158 -14 -211 -109 -8 -13 -25 -27 -38 -32 -14
-6 -24 -18 -24 -29 0 -11 -6 -24 -14 -28 -7 -4 -23 -48 -36 -98 -12 -49 -26
-96 -33 -103 -8 -10 -7 -23 2 -48 15 -41 3 -64 -35 -64 -31 0 -50 -22 -59 -67
-4 -21 -13 -45 -20 -53 -13 -15 -41 -102 -52 -162 -3 -15 -11 -33 -19 -39 -8
-6 -14 -22 -14 -35 0 -12 -4 -26 -10 -29 -5 -3 -10 -25 -10 -48 0 -47 -5 -56
-38 -77 -17 -11 -34 -47 -61 -128 -21 -62 -46 -121 -55 -130 -9 -10 -16 -23
-16 -28 0 -15 -38 -87 -51 -94 -5 -4 -14 -31 -18 -61 -5 -30 -9 -58 -11 -64
-11 -43 52 -54 119 -21 27 13 74 26 112 29 102 9 199 29 199 41 0 6 14 17 30
24 18 8 30 21 30 33 0 15 8 19 38 21 97 4 129 8 169 23 24 9 43 20 43 24 0 7
73 42 113 55 9 3 17 12 17 21 0 11 11 15 43 15 23 0 69 12 102 26 33 14 88 35
123 46 35 11 62 26 62 33 0 15 12 20 75 30 22 3 64 20 92 36 29 16 62 29 73
29 13 0 24 10 30 26 6 16 25 32 49 42 34 15 42 24 52 62 7 25 16 49 20 55 5 5
9 17 9 26 0 10 8 32 17 51 30 60 33 68 33 83 0 8 4 23 10 33 14 25 50 142 50
163 0 10 4 20 9 23 5 3 12 27 15 53 8 51 23 107 37 135 5 10 9 26 9 36 0 10 4
22 8 28 15 16 41 97 52 164 7 35 17 74 23 85 16 28 37 87 37 104 0 8 6 22 14
30 18 21 28 135 13 150 -19 19 -134 14 -155 -7z m154 -5 c2 -7 -10 -45 -29
-83 -19 -38 -46 -109 -61 -159 -15 -49 -37 -115 -48 -145 -59 -159 -125 -371
-143 -460 -11 -52 -95 -300 -115 -339 -15 -30 -25 -36 -91 -53 -138 -36 -213
-47 -277 -41 -54 5 -68 11 -107 45 -24 21 -49 53 -55 72 -15 46 -82 90 -126
81 -49 -9 -189 -132 -480 -420 -158 -157 -253 -245 -264 -245 -17 0 -10 53 15
115 14 33 25 63 25 67 0 7 119 297 145 353 7 17 35 82 60 145 26 63 62 144 80
180 18 36 62 142 99 235 110 277 119 296 147 311 34 17 271 79 364 95 39 6
122 28 185 49 63 21 156 50 205 64 50 15 106 33 125 40 19 8 82 28 140 45 58
18 119 38 135 46 39 18 64 18 71 2z"/>
<path d="M23885 18575 c-38 -13 -110 -36 -160 -50 -49 -15 -128 -40 -175 -55
-47 -16 -103 -31 -125 -35 -22 -4 -53 -11 -70 -17 -33 -12 -135 -78 -135 -87
0 -4 9 -12 20 -19 12 -7 20 -23 20 -40 0 -16 9 -35 21 -45 13 -12 18 -24 14
-35 -4 -9 -9 -23 -12 -30 -4 -10 1 -11 20 -7 29 8 42 -7 28 -33 -7 -14 -6 -25
5 -40 17 -24 10 -45 -25 -76 -25 -23 -27 -36 -5 -36 18 0 220 180 400 356 67
66 143 138 170 160 27 23 62 52 78 66 17 14 26 30 22 36 -9 15 -7 15 -91 -13z"/>
<path d="M23947 18462 c-30 -31 -36 -55 -12 -45 16 5 50 61 43 69 -3 2 -17 -9
-31 -24z"/>
<path d="M23916 18314 c-4 -9 -4 -19 -1 -22 2 -3 7 3 11 12 4 9 4 19 1 22 -2
3 -7 -3 -11 -12z"/>
<path d="M23892 18251 c2 -7 7 -12 11 -12 12 1 9 15 -3 20 -7 2 -11 -2 -8 -8z"/>
<path d="M9068 18607 c-10 -23 -18 -50 -18 -59 0 -9 -4 -20 -10 -23 -5 -3 -10
-14 -10 -23 0 -25 17 -2 28 38 5 19 17 52 26 73 9 20 13 37 9 37 -5 0 -16 -19
-25 -43z"/>
<path d="M24530 18541 c-14 -28 -12 -38 4 -16 8 12 19 16 31 11 15 -5 16 -4 5
9 -17 20 -27 19 -40 -4z"/>
<path d="M24510 18482 c0 -7 -9 -12 -20 -12 -12 0 -24 -10 -30 -24 -5 -13 -18
-30 -29 -38 -11 -8 -27 -36 -36 -64 -10 -27 -26 -58 -36 -70 -10 -11 -19 -27
-19 -36 0 -9 -7 -21 -15 -28 -8 -7 -15 -21 -15 -31 0 -10 -9 -23 -20 -29 -11
-6 -20 -18 -20 -27 0 -10 -11 -26 -25 -38 -21 -16 -27 -32 -32 -77 -3 -32 -10
-58 -15 -58 -5 0 -13 -11 -18 -25 -5 -14 -20 -29 -32 -34 -26 -10 -75 -120
-70 -156 2 -12 -4 -28 -12 -35 -9 -7 -16 -18 -16 -25 0 -6 -9 -20 -20 -30 -11
-10 -20 -26 -20 -36 0 -10 -4 -21 -10 -24 -5 -3 -10 -17 -10 -29 0 -13 -6 -29
-14 -35 -7 -6 -17 -35 -20 -63 -4 -29 -12 -58 -18 -65 -5 -7 -12 -40 -13 -75
-3 -61 18 -138 61 -221 7 -16 14 -34 14 -41 0 -15 45 -130 64 -166 8 -14 19
-52 26 -85 7 -32 18 -73 25 -90 7 -16 18 -50 25 -75 6 -25 25 -79 41 -120 16
-41 29 -80 29 -86 0 -6 8 -19 19 -28 10 -9 21 -35 25 -57 7 -42 48 -133 66
-144 5 -3 10 -14 10 -24 0 -10 9 -26 20 -36 11 -10 20 -26 20 -35 0 -9 12 -40
26 -70 14 -30 28 -70 31 -89 6 -43 26 -61 66 -61 17 0 36 -8 43 -17 13 -17 15
-17 28 0 8 10 27 22 43 26 26 7 28 11 28 55 0 36 5 51 21 64 11 9 26 37 34 62
32 112 54 167 75 190 13 14 27 43 31 65 4 22 15 53 26 70 10 16 18 44 18 60 0
35 22 101 38 117 7 7 12 19 12 28 0 9 7 25 15 36 8 10 15 26 15 35 0 9 9 24
20 34 11 10 20 26 20 36 0 10 4 20 9 23 4 3 11 29 15 57 5 34 15 58 30 72 13
12 26 40 30 62 9 51 27 105 43 130 7 11 13 27 13 36 0 9 6 22 14 28 8 7 12 20
9 30 -2 10 2 24 10 32 7 8 12 20 9 27 -2 7 4 19 14 26 24 18 33 136 10 136
-17 0 -29 41 -20 74 3 15 1 27 -8 33 -18 11 -48 70 -48 93 0 11 -8 24 -19 29
-10 6 -21 21 -25 33 -3 13 -17 28 -30 34 -22 10 -16 -6 55 -147 43 -88 79
-172 79 -187 0 -17 -14 -48 -32 -73 l-32 -44 -10 28 c-9 25 -14 27 -62 27 -45
0 -54 -3 -70 -27 -36 -56 -99 -123 -116 -123 -9 0 -21 7 -26 17 -6 10 -16 14
-27 9 -13 -5 -16 -14 -11 -39 3 -17 1 -39 -4 -47 -8 -12 -10 -10 -10 8 0 38
-22 20 -37 -31 -7 -25 -17 -48 -21 -51 -16 -10 -34 13 -39 50 -6 46 -29 82
-42 68 -6 -5 -17 -166 -26 -359 -17 -394 -33 -636 -40 -643 -3 -3 -8 -2 -12 2
-4 4 -11 492 -14 1084 -4 592 -10 1100 -14 1128 -5 33 -3 65 5 88 6 21 9 40 6
43 -3 4 -6 1 -6 -5z m-30 -189 c-14 -28 -14 -28 -18 -5 -5 34 6 58 20 44 9 -9
8 -18 -2 -39z m-360 -762 c5 -11 10 -29 10 -40 0 -12 11 -31 25 -43 14 -12 25
-30 25 -40 0 -10 8 -26 19 -37 10 -10 26 -43 36 -72 27 -86 35 -99 66 -99 35
0 56 -32 34 -50 -19 -16 -19 -40 0 -76 19 -37 19 -64 -1 -114 -15 -38 -15 -42
0 -59 9 -10 16 -32 16 -50 0 -28 -3 -32 -22 -29 -20 3 -23 -2 -26 -37 -3 -35
10 -75 48 -146 13 -25 23 -126 13 -132 -6 -4 -20 17 -32 46 -13 29 -31 70 -42
92 -10 22 -26 65 -35 95 -9 30 -22 66 -30 80 -7 14 -21 45 -32 70 -10 25 -35
80 -56 123 -20 42 -36 84 -36 91 0 8 -11 36 -24 63 -41 81 -66 165 -66 218 0
44 4 55 30 80 17 16 30 38 30 50 0 39 32 49 50 16z m247 -783 c-3 -8 -6 -5 -6
6 -1 11 2 17 5 13 3 -3 4 -12 1 -19z m213 -770 c0 -19 -18 -43 -25 -36 -9 9 4
48 16 48 5 0 9 -6 9 -12z"/>
<path d="M24256 16881 c-3 -5 1 -14 9 -21 13 -10 15 -9 15 9 0 21 -14 28 -24
12z"/>
<path d="M14362 18450 c0 -19 2 -27 5 -17 2 9 2 25 0 35 -3 9 -5 1 -5 -18z"/>
<path d="M24659 18380 c14 -27 27 -48 28 -46 8 8 -21 78 -36 86 -16 8 -14 2 8
-40z"/>
<path d="M8951 18354 c0 -11 3 -14 6 -6 3 7 2 16 -1 19 -3 4 -6 -2 -5 -13z"/>
<path d="M8921 18283 c-10 -26 -10 -27 4 -9 8 11 15 23 15 28 0 15 -7 8 -19
-19z"/>
<path d="M14401 18284 c0 -11 3 -14 6 -6 3 7 2 16 -1 19 -3 4 -6 -2 -5 -13z"/>
<path d="M26290 18236 c0 -3 4 -14 9 -24 5 -9 26 -57 46 -107 54 -135 54 -133
54 -112 1 9 6 17 11 17 6 0 -1 20 -15 43 -14 24 -25 54 -25 66 0 12 -7 24 -15
27 -8 3 -17 16 -21 27 -7 22 -44 75 -44 63z"/>
<path d="M24750 18195 c0 -5 5 -17 10 -25 5 -8 10 -10 10 -5 0 6 -5 17 -10 25
-5 8 -10 11 -10 5z"/>
<path d="M24776 18137 c3 -10 9 -15 12 -12 3 3 0 11 -7 18 -10 9 -11 8 -5 -6z"/>
<path d="M13500 18025 c0 -5 5 -17 10 -25 5 -8 10 -10 10 -5 0 6 -5 17 -10 25
-5 8 -10 11 -10 5z"/>
<path d="M26450 17848 c11 -29 20 -55 21 -58 1 -3 4 6 8 20 12 41 -2 85 -27
88 l-22 3 20 -53z"/>
<path d="M26480 17773 c0 -4 5 -15 10 -23 8 -13 10 -13 10 2 0 9 -4 20 -10 23
-5 3 -10 3 -10 -2z"/>
<path d="M26515 17690 c4 -14 16 -41 26 -60 15 -29 18 -31 19 -13 0 12 -4 25
-10 28 -5 3 -10 14 -10 24 0 10 -7 25 -16 32 -15 12 -16 11 -9 -11z"/>
<path d="M26561 17583 c0 -4 9 -26 19 -48 l19 -40 0 37 c1 28 -4 40 -19 48
-11 6 -20 7 -19 3z"/>
<path d="M8560 17495 c-7 -9 -10 -18 -7 -21 3 -3 10 4 17 15 13 25 8 27 -10 6z"/>
<path d="M8541 17453 c-1 -6 -4 -20 -7 -30 -5 -17 -5 -17 6 0 6 10 9 23 6 30
-3 9 -5 9 -5 0z"/>
<path d="M8507 17374 c-23 -30 -19 -47 6 -29 10 7 17 22 15 33 -3 19 -4 19
-21 -4z"/>
<path d="M8422 17197 c-18 -38 -31 -71 -29 -74 6 -6 69 127 65 137 -2 4 -18
-24 -36 -63z"/>
<path d="M14925 17240 c10 -11 20 -20 23 -20 3 0 -3 9 -13 20 -10 11 -20 20
-23 20 -3 0 3 -9 13 -20z"/>
<path d="M14980 17176 c0 -2 7 -9 15 -16 13 -11 14 -10 9 4 -5 14 -24 23 -24
12z"/>
<path d="M8363 17065 c-3 -9 -3 -18 -1 -21 3 -3 8 4 11 16 6 23 -1 27 -10 5z"/>
<path d="M26790 17029 c25 -63 30 -70 30 -41 0 11 -4 24 -10 27 -5 3 -10 14
-10 24 0 10 -7 24 -16 31 -12 10 -10 1 6 -41z"/>
<path d="M8234 16785 c-9 -13 -14 -29 -12 -35 2 -7 11 5 21 24 19 41 15 47 -9
11z"/>
<path d="M9617 16791 c-4 -17 -3 -21 5 -13 5 5 8 16 6 23 -3 8 -7 3 -11 -10z"/>
<path d="M2794 16545 c0 -71 1 -99 3 -62 2 37 2 96 0 130 -2 34 -3 4 -3 -68z"/>
<path d="M8107 16508 c-19 -40 -38 -84 -42 -98 -3 -14 15 17 41 68 25 51 44
95 42 98 -3 2 -21 -28 -41 -68z"/>
<path d="M16000 16451 c14 -11 30 -21 35 -21 11 0 -7 14 -40 31 -13 7 -12 3 5
-10z"/>
<path d="M16123 16410 c50 -27 83 -27 39 0 -18 11 -42 20 -55 20 -17 0 -14 -4
16 -20z"/>
<path d="M16225 16371 c17 -12 34 -21 40 -21 17 0 -19 28 -45 35 -23 6 -23 5
5 -14z"/>
<path d="M8051 16364 c0 -11 3 -14 6 -6 3 7 2 16 -1 19 -3 4 -6 -2 -5 -13z"/>
<path d="M6248 16323 c17 -2 47 -2 65 0 17 2 3 4 -33 4 -36 0 -50 -2 -32 -4z"/>
<path d="M3510 16300 c0 -5 5 -10 10 -10 6 0 10 5 10 10 0 6 -4 10 -10 10 -5
0 -10 -4 -10 -10z"/>
<path d="M3925 16300 c-19 -8 -19 -9 3 -9 12 -1 22 4 22 9 0 6 -1 10 -2 9 -2
0 -12 -4 -23 -9z"/>
<path d="M4744 16303 c8 -8 116 -6 124 2 3 3 -25 5 -63 5 -38 0 -65 -3 -61 -7z"/>
<path d="M5445 16300 c-27 -4 81 -8 242 -8 185 -1 294 2 298 8 7 11 -457 11
-540 0z"/>
<path d="M13443 16303 c15 -2 37 -2 50 0 12 2 0 4 -28 4 -27 0 -38 -2 -22 -4z"/>
<path d="M18068 16293 c6 -2 18 -2 25 0 6 3 1 5 -13 5 -14 0 -19 -2 -12 -5z"/>
<path d="M18028 16283 c7 -3 16 -2 19 1 4 3 -2 6 -13 5 -11 0 -14 -3 -6 -6z"/>
<path d="M16793 16233 c9 -2 23 -2 30 0 6 3 -1 5 -18 5 -16 0 -22 -2 -12 -5z"/>
<path d="M2851 15056 c-64 -14 -77 -30 -84 -107 -5 -53 -4 -57 23 -72 15 -10
35 -17 44 -17 9 0 16 -6 16 -14 0 -8 5 -18 12 -22 16 -10 1363 -12 10143 -19
3988 -2 7268 -6 7290 -7 22 -1 913 1 1980 5 3974 15 4318 16 4665 9 331 -8
393 -5 445 18 11 5 33 11 50 15 38 8 45 20 43 75 l-1 45 -6 -50 -6 -50 -75 2
c-184 6 -238 14 -277 40 -66 45 -119 47 -1031 48 l-852 0 -23 -27 c-22 -27
-25 -27 -147 -30 -69 -1 -281 -1 -471 0 -190 2 -368 1 -395 -2 -68 -8 -350
-14 -1209 -27 -499 -8 -1478 -10 -3010 -5 -2103 5 -2545 11 -2850 35 -85 6
-95 9 -65 16 l35 9 -30 8 c-89 25 -1485 45 -2645 37 -1397 -10 -1699 -19
-1650 -49 17 -11 -93 -18 -445 -30 -569 -20 -1822 -28 -4105 -25 -1920 2
-2275 4 -2515 18 -291 17 -453 33 -470 47 -26 21 -379 33 -1285 41 -536 6
-1012 10 -1056 9 -76 -1 -109 9 -89 28 3 4 61 8 128 9 565 11 24515 17 24531
6 7 -5 4 -1 -5 8 -15 14 -71 17 -421 22 -222 4 -5729 7 -12238 7 -6509 0
-11848 2 -11865 4 -16 2 -54 -1 -84 -8z"/>
<path d="M2858 14547 c-57 -11 -76 -31 -88 -95 -12 -65 -5 -78 62 -115 l51
-29 1941 -5 c1068 -3 2109 -5 2313 -5 206 1 375 -3 378 -8 7 -12 473 -12 480
0 6 10 2369 15 7365 14 3656 -1 4050 -2 4050 -15 0 -13 317 -12 322 1 5 15
1250 20 1913 9 303 -6 602 -10 665 -10 104 0 1306 12 1440 14 30 1 84 0 120
-1 36 -1 405 0 820 3 415 4 859 2 985 -2 127 -5 403 -7 615 -3 530 7 982 -1
1003 -19 23 -18 89 -7 80 15 -7 19 24 43 57 44 41 0 50 18 50 96 0 84 -9 95
-78 102 -42 3 -3218 6 -19624 14 -2682 2 -4896 -1 -4920 -5z m24607 -107 l0
-75 -164 3 c-151 2 -250 14 -356 41 -103 27 -1158 49 -1495 32 -199 -11 -216
-13 -238 -33 -23 -22 -23 -22 -510 -25 -268 -2 -608 -7 -757 -13 -438 -16
-4518 -24 -5415 -11 -1154 18 -1556 30 -1569 48 -24 35 -641 53 -1936 55 -959
2 -1936 -12 -1957 -29 -37 -29 -482 -49 -1418 -64 -703 -11 -5064 -16 -5115
-5 -16 3 -262 10 -545 15 -314 5 -525 13 -540 19 -18 8 -20 11 -7 11 9 1 17 5
17 9 0 10 24 9 -505 26 -258 9 -479 18 -491 20 -11 3 -294 8 -630 12 -335 3
-611 8 -613 10 -2 2 108 5 245 7 137 1 344 3 459 5 116 1 3456 4 7423 6 3968
3 7216 7 7219 9 2 3 2005 4 4451 4 l4447 -2 0 -75z m-24566 49 c22 -1 21 -2
-9 -9 -19 -5 -45 -11 -57 -15 -19 -6 -23 -4 -23 15 0 20 4 22 31 16 17 -3 43
-7 58 -7z"/>
<path d="M3840 13549 c-226 -32 -259 -41 -419 -114 -135 -61 -204 -110 -317
-227 -164 -169 -263 -347 -316 -571 -19 -79 -22 -120 -22 -297 0 -175 3 -220
22 -309 13 -57 27 -111 31 -120 5 -9 11 -32 15 -53 8 -44 144 -264 224 -361
133 -163 324 -285 547 -347 221 -62 263 -66 457 -46 217 23 361 68 530 164 80
46 106 72 221 218 62 80 64 83 80 180 18 108 32 389 22 417 -13 31 -23 18 -45
-55 -12 -40 -27 -91 -35 -113 -7 -22 -21 -71 -30 -110 -9 -38 -28 -90 -42
-115 -14 -25 -36 -64 -49 -88 -49 -92 -185 -222 -280 -270 -167 -84 -426 -114
-625 -72 -206 43 -277 73 -404 172 -100 76 -209 221 -250 334 -10 27 -22 54
-26 59 -4 6 -12 29 -18 50 -5 22 -22 81 -37 130 -25 85 -27 102 -28 305 -1
171 3 233 17 300 32 153 68 260 135 400 10 19 67 84 127 145 99 100 120 116
205 158 125 60 178 75 340 93 136 16 267 13 358 -7 23 -5 94 -34 156 -65 91
-44 128 -69 183 -123 81 -78 144 -179 180 -289 14 -43 33 -85 42 -95 14 -17
16 -17 28 -1 14 19 10 78 -15 269 -8 66 -16 139 -17 162 0 24 -8 50 -18 61
-31 34 -229 129 -337 162 -58 17 -116 35 -130 41 -38 14 -257 39 -335 38 -38
-1 -95 -5 -125 -10z"/>
<path d="M7050 13549 c-183 -34 -356 -85 -438 -130 -35 -19 -84 -45 -109 -58
-58 -31 -258 -228 -310 -306 -42 -64 -107 -185 -118 -222 -8 -30 -35 -30 -35
-1 0 37 -19 7 -35 -56 -19 -71 -19 -76 0 -76 18 0 20 -36 4 -76 -5 -16 -16
-87 -24 -160 -12 -113 -12 -151 0 -266 8 -73 24 -169 36 -213 31 -118 34 -145
16 -145 -9 0 -18 8 -20 18 -3 9 -3 -3 0 -28 6 -49 23 -90 46 -108 12 -10 13
-8 9 13 -3 18 0 25 11 25 10 0 38 -40 72 -104 44 -79 74 -120 132 -176 58 -58
74 -79 70 -96 -3 -19 1 -24 27 -30 17 -4 45 -19 63 -34 17 -16 42 -32 55 -36
12 -4 34 -15 48 -25 31 -23 180 -84 285 -116 111 -34 364 -50 523 -33 98 10
136 20 275 72 176 66 242 105 369 219 41 37 90 91 110 120 85 129 186 318 203
379 9 36 23 83 31 105 7 22 21 103 29 180 14 128 14 152 -1 280 -28 243 -107
454 -234 623 -138 185 -220 252 -444 361 -90 44 -125 55 -224 71 -64 11 -133
24 -152 30 -41 12 -205 11 -270 -1z m343 -163 c40 -14 89 -28 109 -31 55 -10
242 -143 313 -223 88 -98 131 -166 176 -277 4 -11 16 -38 25 -60 26 -64 43
-142 59 -270 26 -212 18 -352 -35 -590 -38 -169 -174 -393 -295 -485 -18 -14
-55 -42 -82 -62 -135 -104 -258 -139 -495 -140 l-153 -1 -131 45 c-117 40
-139 51 -205 105 -110 91 -194 175 -214 214 -10 19 -28 48 -41 64 -53 70 -120
258 -150 420 -27 146 -3 486 43 620 13 39 27 84 32 100 57 207 268 444 471
530 104 44 121 47 127 25 5 -17 12 -18 72 -13 81 7 92 13 23 13 -38 0 -52 4
-52 14 0 20 24 23 188 25 128 1 151 -2 215 -23z"/>
<path d="M7860 13010 c0 -5 5 -10 11 -10 5 0 7 5 4 10 -3 6 -8 10 -11 10 -2 0
-4 -4 -4 -10z"/>
<path d="M8012 12690 c0 -19 2 -27 5 -17 2 9 2 25 0 35 -3 9 -5 1 -5 -18z"/>
<path d="M8044 12340 c0 -130 4 -211 7 -180 9 72 9 267 0 350 -5 40 -7 -26 -7
-170z"/>
<path d="M8011 11974 c0 -11 3 -14 6 -6 3 7 2 16 -1 19 -3 4 -6 -2 -5 -13z"/>
<path d="M7890 11690 c-9 -6 -10 -10 -3 -10 6 0 15 5 18 10 8 12 4 12 -15 0z"/>
<path d="M9562 13531 c-6 -16 -8 -31 -6 -34 4 -4 6 -695 5 -1494 -1 -300 -3
-333 -17 -333 -14 0 -16 -11 -10 -92 3 -51 2 -130 -2 -175 -4 -46 -4 -83 0
-83 4 0 8 -9 8 -20 0 -23 -64 -56 -130 -66 -77 -13 -130 -66 -77 -79 12 -3
166 -4 342 -3 l320 3 0 25 c0 23 -4 25 -78 36 -91 12 -123 32 -154 95 l-22 44
-2 825 c-1 585 2 825 10 828 18 6 49 -22 117 -104 36 -44 101 -113 145 -155
43 -42 93 -93 110 -115 56 -71 271 -307 363 -399 50 -49 116 -119 147 -155 31
-36 74 -83 95 -105 36 -37 210 -230 444 -495 174 -196 349 -372 365 -366 13 5
15 139 15 1088 0 1043 1 1085 19 1125 24 51 86 98 143 107 23 4 48 12 55 18
14 11 18 48 6 49 -5 0 -154 1 -331 2 -262 2 -326 -1 -335 -12 -15 -17 13 -38
62 -47 72 -13 164 -77 185 -129 18 -41 30 -892 21 -1324 -9 -376 -4 -365 -111
-243 -38 42 -111 122 -164 177 -90 95 -318 343 -459 499 -35 39 -117 125 -181
191 -65 66 -171 179 -236 251 -66 72 -200 219 -299 326 -99 107 -215 234 -258
282 -43 47 -82 86 -87 86 -4 0 -13 -13 -18 -29z"/>
<path d="M13395 13536 c-126 -20 -299 -111 -373 -195 -80 -91 -121 -178 -137
-287 -25 -179 27 -352 143 -470 63 -65 150 -143 197 -179 28 -20 77 -61 110
-90 56 -50 122 -103 240 -194 66 -50 202 -195 221 -235 8 -17 27 -53 41 -81
23 -43 28 -65 31 -152 5 -131 -10 -168 -117 -294 -18 -21 -38 -39 -43 -39 -5
0 -28 -13 -51 -28 -66 -44 -88 -50 -198 -57 -133 -8 -225 10 -323 65 -135 75
-194 186 -231 432 -7 43 -23 58 -40 35 -16 -22 -49 -346 -41 -400 4 -24 21
-65 39 -93 28 -43 39 -51 92 -68 33 -10 92 -32 130 -47 109 -43 200 -59 337
-59 138 1 195 12 317 64 141 59 197 108 268 232 88 154 112 293 78 455 -31
144 -117 276 -261 399 -29 25 -90 77 -136 116 -46 39 -105 86 -133 104 -122
83 -327 261 -376 327 -61 82 -73 123 -74 243 0 99 2 109 33 172 36 74 95 133
170 169 40 19 67 23 184 27 136 4 138 4 203 -26 35 -17 80 -46 99 -64 43 -42
94 -142 102 -202 8 -59 26 -75 48 -44 13 18 16 53 16 191 0 96 -4 177 -10 187
-15 28 -46 42 -120 56 -36 6 -98 19 -138 28 -85 19 -184 19 -297 2z"/>
<path d="M24921 13528 c-5 -13 -15 -77 -21 -143 -6 -66 -15 -142 -20 -170 -5
-27 -19 -135 -30 -240 -22 -211 -33 -298 -55 -460 -8 -60 -19 -150 -24 -200
-6 -49 -17 -160 -25 -245 -9 -85 -23 -204 -31 -265 -8 -60 -19 -153 -25 -204
-14 -121 -37 -237 -57 -279 -9 -18 -36 -49 -61 -68 -38 -29 -53 -34 -97 -34
-35 0 -60 -6 -75 -18 -25 -20 -19 -49 14 -58 11 -2 152 -4 313 -2 220 2 295 6
305 16 21 21 -4 45 -72 68 -88 30 -100 47 -100 148 1 44 5 124 10 176 5 52 13
154 19 225 6 72 18 177 25 235 8 58 17 146 20 195 4 50 11 131 16 180 23 210
40 399 40 446 0 49 1 50 27 47 22 -3 31 -14 58 -78 18 -41 62 -137 99 -214 69
-145 76 -166 51 -166 -20 0 -19 -9 5 -45 11 -16 20 -24 20 -17 0 26 29 10 45
-25 10 -21 34 -74 55 -118 21 -44 52 -116 69 -160 18 -43 36 -84 41 -90 4 -5
27 -53 50 -105 23 -52 91 -194 151 -315 60 -122 109 -226 109 -233 0 -7 -7
-12 -16 -12 -11 0 -14 -5 -10 -16 3 -9 6 -32 6 -52 1 -28 7 -42 25 -55 l25
-18 -10 26 c-31 82 5 85 43 4 20 -41 33 -59 44 -57 19 3 69 117 118 263 18 55
61 155 94 223 34 67 61 124 61 127 0 2 34 73 75 156 41 84 75 160 75 169 0 9
24 66 54 126 30 60 64 134 76 164 12 30 49 114 81 185 33 72 81 176 107 232
26 57 53 103 60 103 19 0 14 -61 -8 -98 l-21 -33 28 3 c20 2 29 9 31 26 3 22
32 32 32 10 0 -6 7 -61 14 -122 8 -61 20 -156 25 -211 6 -55 16 -143 22 -195
29 -253 68 -716 71 -845 3 -96 1 -110 -14 -113 -12 -2 -18 5 -20 25 l-4 28
-14 -28 c-10 -21 -20 -28 -36 -24 -17 3 -23 -2 -27 -20 -4 -20 0 -25 24 -30
50 -10 35 -33 -20 -33 -33 0 -55 -6 -66 -16 -15 -16 -15 -18 3 -36 18 -19 37
-20 278 -24 281 -3 426 4 446 24 19 19 -3 46 -38 50 -46 5 -137 34 -156 50
-20 17 -24 42 -7 42 5 0 7 5 3 11 -5 8 -9 7 -14 -1 -15 -24 -39 -1 -54 52 -8
29 -24 127 -36 218 -12 91 -26 194 -31 230 -24 171 -70 526 -79 615 -15 153
-42 361 -91 705 -17 118 -34 244 -39 280 -19 142 -49 163 -85 60 -8 -23 -46
-106 -84 -184 -160 -328 -201 -416 -236 -501 -20 -49 -51 -121 -70 -160 -102
-214 -125 -265 -144 -312 -11 -29 -39 -88 -61 -132 -22 -45 -40 -85 -40 -92 0
-6 -25 -63 -56 -127 -73 -152 -104 -219 -104 -226 0 -3 -14 -35 -31 -72 -25
-53 -35 -65 -52 -62 -24 3 -67 61 -67 89 0 30 28 22 46 -13 l17 -32 17 35 c35
69 71 170 67 187 -3 12 -5 11 -6 -6 0 -13 -14 -35 -31 -49 -24 -20 -30 -33
-30 -64 0 -33 -3 -39 -21 -39 -11 0 -29 10 -40 23 -10 12 -18 16 -19 10 0 -7
-6 -13 -12 -13 -13 1 -145 268 -173 348 -8 24 -23 55 -34 70 -23 34 -284 564
-312 635 -54 138 -360 749 -378 755 -6 2 -15 -7 -20 -20z"/>
<path d="M15143 13493 c-9 -24 4 -38 55 -56 88 -30 141 -75 168 -140 l25 -58
-3 -952 c-3 -932 -3 -953 -23 -985 -24 -41 -81 -72 -130 -72 -42 0 -95 -25
-95 -44 0 -37 22 -39 375 -40 320 -1 345 0 362 17 17 18 17 19 -4 36 -12 11
-47 21 -83 24 -34 4 -65 9 -70 12 -4 3 -23 31 -42 63 l-33 57 -3 956 c-3 1094
-8 1026 80 1086 26 17 65 34 87 38 46 8 70 30 55 51 -13 19 -714 26 -721 7z"/>
<path d="M16953 13482 c-7 -30 13 -52 47 -52 39 0 106 -32 129 -61 53 -68 51
-25 53 -1063 3 -953 3 -961 -18 -996 -23 -40 -47 -54 -135 -76 -35 -9 -72 -23
-82 -33 -15 -15 -16 -19 -3 -36 14 -19 33 -20 719 -23 563 -2 706 0 714 10 21
27 57 127 84 233 16 60 40 148 54 195 49 161 13 204 -45 55 -47 -122 -80 -175
-142 -229 -74 -65 -125 -87 -223 -97 -46 -5 -105 -13 -132 -20 -26 -6 -153
-11 -282 -12 -221 -1 -234 0 -247 18 -13 17 -15 164 -13 993 l1 973 21 49 c30
66 76 102 144 111 30 4 61 13 69 19 17 15 19 49 2 55 -7 3 -170 6 -361 7
l-348 3 -6 -23z"/>
<path d="M19521 13497 c-18 -18 -12 -47 12 -57 12 -5 43 -12 69 -15 37 -5 58
-16 94 -48 l46 -42 10 -145 c11 -174 6 -1828 -6 -1852 -4 -10 -15 -18 -23 -18
-12 0 -14 16 -7 101 5 75 4 100 -5 95 -6 -4 -11 -24 -11 -44 -1 -56 -18 -124
-40 -154 l-20 -28 31 7 c27 5 31 3 27 -13 -4 -26 -64 -54 -113 -54 -43 0 -85
-22 -85 -44 0 -36 24 -39 375 -42 344 -4 344 -4 370 19 23 20 25 24 12 41 -11
15 -33 21 -88 27 -70 7 -76 10 -110 48 -29 32 -37 52 -42 93 -4 29 -6 469 -6
978 l0 925 22 45 c26 53 70 85 146 106 61 17 95 42 83 61 -10 16 -726 25 -741
10z"/>
<path d="M21270 13502 c-6 -2 -10 -12 -10 -22 0 -22 28 -40 60 -40 28 0 99
-37 122 -64 54 -61 53 -45 50 -656 -3 -645 6 -885 38 -979 31 -93 97 -232 130
-273 34 -42 38 -65 13 -70 -15 -3 -15 -6 6 -24 13 -13 30 -20 41 -17 13 4 40
-13 87 -54 114 -100 210 -143 408 -183 95 -19 131 -22 265 -17 167 5 242 20
375 75 98 41 150 75 221 148 131 133 192 254 253 507 8 33 11 256 11 752 0
577 3 712 14 739 13 31 77 91 123 115 12 6 35 11 52 11 36 0 49 16 28 37 -12
12 -62 15 -313 15 -271 0 -299 -1 -302 -16 -6 -27 15 -43 65 -50 62 -8 129
-62 143 -116 14 -52 14 -1377 0 -1480 -33 -246 -155 -422 -365 -526 -189 -94
-439 -95 -656 -3 -131 55 -242 166 -315 315 -60 120 -65 209 -62 1022 3 673 4
691 23 717 25 34 78 63 128 70 40 6 57 28 41 52 -7 11 -68 14 -337 16 -180 1
-332 1 -337 -1z"/>
<path d="M13226 13271 c-4 -5 3 -7 14 -4 23 6 26 13 6 13 -8 0 -17 -4 -20 -9z"/>
<path d="M21452 13250 c0 -14 2 -19 5 -12 2 6 2 18 0 25 -3 6 -5 1 -5 -13z"/>
<path d="M19712 13235 c0 -16 2 -22 5 -12 2 9 2 23 0 30 -3 6 -5 -1 -5 -18z"/>
<path d="M21451 13114 c0 -11 3 -14 6 -6 3 7 2 16 -1 19 -3 4 -6 -2 -5 -13z"/>
<path d="M17144 12875 c0 -126 2 -177 3 -112 2 65 2 168 0 230 -1 62 -3 9 -3
-118z"/>
<path d="M21453 12930 c0 -41 2 -58 4 -37 2 20 2 54 0 75 -2 20 -4 3 -4 -38z"/>
<path d="M24802 12945 c0 -16 2 -22 5 -12 2 9 2 23 0 30 -3 6 -5 -1 -5 -18z"/>
<path d="M9770 12928 c0 -13 3 -47 6 -76 l7 -52 23 32 c30 40 30 45 2 44 -20
-1 -23 4 -21 31 2 17 -2 35 -7 38 -6 3 -10 -4 -10 -17z"/>
<path d="M19714 12755 c0 -82 2 -115 3 -72 2 43 2 110 0 150 -1 40 -3 5 -3
-78z"/>
<path d="M6041 12874 c0 -11 3 -14 6 -6 3 7 2 16 -1 19 -3 4 -6 -2 -5 -13z"/>
<path d="M24788 12830 c-4 -14 -8 -38 -7 -55 0 -30 0 -30 10 -5 6 13 9 38 7
55 -3 29 -3 30 -10 5z"/>
<path d="M9920 12760 c0 -5 5 -10 11 -10 5 0 7 5 4 10 -3 6 -8 10 -11 10 -2 0
-4 -4 -4 -10z"/>
<path d="M9771 12713 l1 -48 12 35 c13 36 11 60 -5 60 -5 0 -9 -21 -8 -47z"/>
<path d="M24771 12724 c0 -11 3 -14 6 -6 3 7 2 16 -1 19 -3 4 -6 -2 -5 -13z"/>
<path d="M10036 12665 c4 -8 8 -15 10 -15 2 0 4 7 4 15 0 8 -4 15 -10 15 -5 0
-7 -7 -4 -15z"/>
<path d="M23123 12615 c0 -38 2 -53 4 -32 2 20 2 52 0 70 -2 17 -4 1 -4 -38z"/>
<path d="M26723 12615 c0 -22 2 -30 4 -17 2 12 2 30 0 40 -3 9 -5 -1 -4 -23z"/>
<path d="M17143 12555 c0 -22 2 -30 4 -17 2 12 2 30 0 40 -3 9 -5 -1 -4 -23z"/>
<path d="M26732 12530 c0 -19 2 -27 5 -17 2 9 2 25 0 35 -3 9 -5 1 -5 -18z"/>
<path d="M19714 12450 c0 -58 1 -81 3 -52 2 28 2 76 0 105 -2 28 -3 5 -3 -53z"/>
<path d="M26279 12493 c-21 -58 -21 -58 -9 -47 11 11 32 74 24 74 -2 0 -9 -12
-15 -27z"/>
<path d="M26739 12413 c-2 -24 -2 -51 2 -61 4 -10 10 -125 13 -256 3 -132 10
-244 15 -250 12 -15 42 -208 51 -326 l7 -95 1 80 c1 44 -4 150 -13 235 -8 85
-19 205 -24 265 -16 182 -32 337 -40 395 l-7 55 -5 -42z"/>
<path d="M13140 12385 c0 -10 10 -15 28 -15 26 1 26 1 8 15 -25 19 -36 19 -36
0z"/>
<path d="M17142 12370 c0 -19 2 -27 5 -17 2 9 2 25 0 35 -3 9 -5 1 -5 -18z"/>
<path d="M13210 12356 c0 -2 7 -9 15 -16 9 -7 15 -8 15 -2 0 5 -7 12 -15 16
-8 3 -15 4 -15 2z"/>
<path d="M24732 12315 c0 -16 2 -22 5 -12 2 9 2 23 0 30 -3 6 -5 -1 -5 -18z"/>
<path d="M11333 12240 c0 -47 2 -66 4 -42 2 23 2 61 0 85 -2 23 -4 4 -4 -43z"/>
<path d="M2711 12239 c0 -24 5 -53 10 -64 6 -13 7 0 3 40 -8 73 -14 85 -13 24z"/>
<path d="M13322 12239 c2 -7 10 -15 17 -17 8 -3 12 1 9 9 -2 7 -10 15 -17 17
-8 3 -12 -1 -9 -9z"/>
<path d="M19713 12110 c0 -41 2 -58 4 -37 2 20 2 54 0 75 -2 20 -4 3 -4 -38z"/>
<path d="M2732 12115 c0 -16 2 -22 5 -12 2 9 2 23 0 30 -3 6 -5 -1 -5 -18z"/>
<path d="M17141 12064 c0 -11 3 -14 6 -6 3 7 2 16 -1 19 -3 4 -6 -2 -5 -13z"/>
<path d="M11331 12054 c0 -11 3 -14 6 -6 3 7 2 16 -1 19 -3 4 -6 -2 -5 -13z"/>
<path d="M10616 12005 c-3 -8 -1 -15 4 -15 13 0 22 18 11 24 -5 3 -11 -1 -15
-9z"/>
<path d="M13606 12005 c-4 -10 1 -15 16 -15 17 0 18 2 8 15 -7 8 -14 15 -15
15 -2 0 -5 -7 -9 -15z"/>
<path d="M26040 11959 c-6 -11 -10 -25 -7 -32 2 -6 9 3 15 21 12 36 8 42 -8
11z"/>
<path d="M5991 11914 c0 -11 3 -14 6 -6 3 7 2 16 -1 19 -3 4 -6 -2 -5 -13z"/>
<path d="M19714 11715 c0 -66 1 -92 3 -57 2 34 2 88 0 120 -2 31 -3 3 -3 -63z"/>
<path d="M17141 11581 c0 -123 1 -222 4 -219 9 9 14 362 6 403 -6 26 -9 -36
-10 -184z"/>
<path d="M11320 11761 c0 -6 4 -13 10 -16 6 -3 7 1 4 9 -7 18 -14 21 -14 7z"/>
<path d="M13833 11640 c0 -41 2 -58 4 -37 2 20 2 54 0 75 -2 20 -4 3 -4 -38z"/>
<path d="M23301 11588 c-10 -30 -9 -31 4 -14 8 11 15 26 15 33 0 22 -8 14 -19
-19z"/>
<path d="M20052 11540 c0 -19 2 -27 5 -17 2 9 2 25 0 35 -3 9 -5 1 -5 -18z"/>
<path d="M2980 11508 c0 -9 5 -20 11 -23 17 -11 20 0 4 21 -13 17 -14 17 -15
2z"/>
<path d="M26061 11454 c0 -11 3 -14 6 -6 3 7 2 16 -1 19 -3 4 -6 -2 -5 -13z"/>
<path d="M3022 11443 c2 -10 11 -19 21 -21 16 -3 17 -1 7 17 -13 25 -33 28
-28 4z"/>
<path d="M20052 11435 c0 -16 2 -22 5 -12 2 9 2 23 0 30 -3 6 -5 -1 -5 -18z"/>
<path d="M3080 11375 c0 -8 7 -15 16 -15 14 0 14 3 4 15 -7 8 -14 15 -16 15
-2 0 -4 -7 -4 -15z"/>
<path d="M26032 11370 c0 -14 2 -19 5 -12 2 6 2 18 0 25 -3 6 -5 1 -5 -13z"/>
<path d="M23139 11333 c-13 -16 -12 -17 4 -4 16 13 21 21 13 21 -2 0 -10 -8
-17 -17z"/>
<path d="M20097 11299 c12 -12 24 -21 27 -18 2 2 -8 13 -22 23 l-27 19 22 -24z"/>
<path d="M24900 11311 c0 -6 4 -13 10 -16 6 -3 7 1 4 9 -7 18 -14 21 -14 7z"/>
<path d="M3938 11283 c7 -3 16 -2 19 1 4 3 -2 6 -13 5 -11 0 -14 -3 -6 -6z"/>
<path d="M25966 11205 c-9 -26 -7 -32 5 -12 6 10 9 21 6 23 -2 3 -7 -2 -11
-11z"/>
<path d="M13065 11110 c3 -5 11 -10 16 -10 6 0 7 5 4 10 -3 6 -11 10 -16 10
-6 0 -7 -4 -4 -10z"/>
<path d="M9578 11103 c12 -2 32 -2 45 0 12 2 2 4 -23 4 -25 0 -35 -2 -22 -4z"/>
<path d="M26935 11090 c3 -5 8 -10 11 -10 2 0 4 5 4 10 0 6 -5 10 -11 10 -5 0
-7 -4 -4 -10z"/>
<path d="M27028 11093 c7 -3 16 -2 19 1 4 3 -2 6 -13 5 -11 0 -14 -3 -6 -6z"/>
<path d="M22403 11043 c15 -2 39 -2 55 0 15 2 2 4 -28 4 -30 0 -43 -2 -27 -4z"/>
</g>
</svg>
